<?xml version="1.0" standalone="no"?><svg xmlns="http://www.w3.org/2000/svg" viewBox="0 0 1440 320"><path fill="#f3f4f5" fill-opacity="1" d="M0,160L17.1,154.7C34.3,149,69,139,103,128C137.1,117,171,107,206,117.3C240,128,274,160,309,186.7C342.9,213,377,235,411,250.7C445.7,267,480,277,514,256C548.6,235,583,181,617,149.3C651.4,117,686,107,720,122.7C754.3,139,789,181,823,192C857.1,203,891,181,926,186.7C960,192,994,224,1029,229.3C1062.9,235,1097,213,1131,213.3C1165.7,213,1200,235,1234,213.3C1268.6,192,1303,128,1337,106.7C1371.4,85,1406,107,1423,117.3L1440,128L1440,320L1422.9,320C1405.7,320,1371,320,1337,320C1302.9,320,1269,320,1234,320C1200,320,1166,320,1131,320C1097.1,320,1063,320,1029,320C994.3,320,960,320,926,320C891.4,320,857,320,823,320C788.6,320,754,320,720,320C685.7,320,651,320,617,320C582.9,320,549,320,514,320C480,320,446,320,411,320C377.1,320,343,320,309,320C274.3,320,240,320,206,320C171.4,320,137,320,103,320C68.6,320,34,320,17,320L0,320Z"></path></svg>